#tb 0: 1/1000000
#tb 1: 1/44100
0,          0,          0,        0,   614400, 0x00000000
1,          0,          0,     1447,     5788, 0x916d2db8
1,       1447,       1447,     1472,     5888, 0xc65cb069
0,      33360,      33360,        0,   614400, 0x00000000
1,       2919,       2919,     1472,     5888, 0xd8ec1acc
0,      66720,      66720,        0,   614400, 0xa17ea4ec
1,       4391,       4391,     1472,     5888, 0xb22af0d6
0,     100080,     100080,        0,   614400, 0x4fd207fb
1,       5863,       5863,     1472,     5888, 0x86bb50d9
0,     133440,     133440,        0,   614400, 0xd7a510fb
1,       7335,       7335,     1472,     5888, 0x7674d923
0,     166800,     166800,        0,   614400, 0xe901e2f4
1,       8807,       8807,     1472,     5888, 0xb97c5500
0,     200160,     200160,        0,   614400, 0x4ac5d3c4
1,      10279,      10279,     1472,     5888, 0xecea1249
0,     233520,     233520,        0,   614400, 0x32e3e99c
1,      11751,      11751,     1472,     5888, 0x0f4fea81
0,     266880,     266880,        0,   614400, 0x7a2ff20c
1,      13223,      13223,     1472,     5888, 0x997914d8
0,     300240,     300240,        0,   614400, 0x59941193
1,      14695,      14695,     1472,     5888, 0xd012f03a
0,     333600,     333600,        0,   614400, 0x92773a2b
1,      16167,      16167,     1472,     5888, 0x03fd5248
0,     366960,     366960,        0,   614400, 0x4cd14313
1,      17639,      17639,     1472,     5888, 0x3041a288
0,     400320,     400320,        0,   614400, 0x2a093fa3
1,      19111,      19111,     1472,     5888, 0xe6105de1
0,     433680,     433680,        0,   614400, 0xf68b8463
1,      20583,      20583,     1472,     5888, 0xaa38c7bd
0,     467040,     467040,        0,   614400, 0xa9e1969b
1,      22055,      22055,     1472,     5888, 0xbfff702c
0,     500400,     500400,        0,   614400, 0x461996bb
1,      23527,      23527,     1472,     5888, 0xbe4319a3
0,     533760,     533760,        0,   614400, 0xae58d053
1,      24999,      24999,     1472,     5888, 0x2e89d262
0,     567120,     567120,        0,   614400, 0x7693015a
1,      26471,      26471,     1472,     5888, 0x10992b9c
0,     600480,     600480,        0,   614400, 0x0b3507fa
1,      27943,      27943,     1472,     5888, 0x972904bf
0,     633840,     633840,        0,   614400, 0xff5c2492
1,      29415,      29415,     1472,     5888, 0x0093501c
0,     667200,     667200,        0,   614400, 0x636e3e32
1,      30887,      30887,     1472,     5888, 0x8994ad0e
0,     700560,     700560,        0,   614400, 0x1acd6d0a
1,      32359,      32359,     1472,     5888, 0x9db37d21
0,     733920,     733920,        0,   614400, 0x67039232
1,      33831,      33831,     1472,     5888, 0xa8c7300f
0,     767280,     767280,        0,   614400, 0x8ab9c75a
1,      35303,      35303,     1472,     5888, 0x1b7073b5
0,     800640,     800640,        0,   614400, 0xe824bbe2
1,      36775,      36775,     1472,     5888, 0x56ad7f7b
0,     834000,     834000,        0,   614400, 0x5133e9ea
1,      38247,      38247,     1472,     5888, 0x9706a8fb
0,     867360,     867360,        0,   614400, 0xcecf1249
1,      39719,      39719,     1472,     5888, 0x16c9420e
0,     900720,     900720,        0,   614400, 0xe6d928c1
1,      41191,      41191,     1472,     5888, 0x3e11be0a
0,     934080,     934080,        0,   614400, 0x8da46ff1
1,      42663,      42663,     1472,     5888, 0x3e534a32
0,     967440,     967440,        0,   614400, 0x1c778319
1,      44135,      44135,     1447,     5788, 0x0ffae5f4
0,    1000800,    1000800,        0,   614400, 0x35a19451
1,      45582,      45582,     1472,     5888, 0xc2018f82
0,    1034160,    1034160,        0,   614400, 0x5145d1b9
1,      47054,      47054,     1472,     5888, 0x2a11f529
0,    1067520,    1067520,        0,   614400, 0x146ee231
1,      48526,      48526,     1472,     5888, 0xec282167
0,    1100880,    1100880,        0,   614400, 0xd9b33380
1,      49998,      49998,     1472,     5888, 0xd61b5a05
0,    1134240,    1134240,        0,   614400, 0x8b112ef8
1,      51470,      51470,     1472,     5888, 0x61de2741
0,    1167600,    1167600,        0,   614400, 0xb9e79ab0
1,      52942,      52942,     1472,     5888, 0x17aaff8c
0,    1200960,    1200960,        0,   614400, 0x62d3a498
1,      54414,      54414,     1472,     5888, 0xd40cd7a6
0,    1234320,    1234320,        0,   614400, 0xaeaaaa58
1,      55886,      55886,     1472,     5888, 0x840840d4
0,    1267680,    1267680,        0,   614400, 0x8922c440
1,      57358,      57358,     1472,     5888, 0x7c97ddcf
0,    1301040,    1301040,        0,   614400, 0xd62ef758
1,      58830,      58830,     1472,     5888, 0xed9150f7
0,    1334400,    1334400,        0,   614400, 0x2a53149f
1,      60302,      60302,     1472,     5888, 0xbccf973e
0,    1367760,    1367760,        0,   614400, 0x13da47df
1,      61774,      61774,     1472,     5888, 0x74bda5ea
0,    1401120,    1401120,        0,   614400, 0x27c05c3f
1,      63246,      63246,     1472,     5888, 0xd083892a
0,    1434480,    1434480,        0,   614400, 0x41ff7ca7
1,      64718,      64718,     1472,     5888, 0x16e444b2
0,    1467840,    1467840,        0,   614400, 0x6b0e8a07
1,      66190,      66190,     1472,     5888, 0x68a9cedb
0,    1501200,    1501200,        0,   614400, 0xa200ad9f
1,      67662,      67662,     1472,     5888, 0x80849f36
0,    1534560,    1534560,        0,   614400, 0x9da7cc77
1,      69134,      69134,     1472,     5888, 0x63cb7df9
0,    1567920,    1567920,        0,   614400, 0x2f5703be
1,      70606,      70606,     1472,     5888, 0xf90f754d
0,    1601280,    1601280,        0,   614400, 0x91c720f6
1,      72078,      72078,     1472,     5888, 0x9c2c867d
0,    1634640,    1634640,        0,   614400, 0x927a882e
1,      73550,      73550,     1472,     5888, 0x337994a4
1,      75022,      75022,     1472,     5888, 0xf354a28d
1,      76494,      76494,     1472,     5888, 0x70933738
1,      77966,      77966,     1472,     5888, 0x3c019219
1,      79438,      79438,     1472,     5888, 0xe0c21295
1,      80910,      80910,     1472,     5888, 0x21869515
1,      82382,      82382,     1472,     5888, 0xe9b1ec7d
1,      83854,      83854,     1472,     5888, 0x57825497
1,      85326,      85326,     1472,     5888, 0xae02ebeb
1,      86798,      86798,     1472,     5888, 0x0c62e14f
1,      88270,      88270,     1447,     5788, 0x8a255f8f
1,      89717,      89717,     1472,     5888, 0x38993359
1,      91189,      91189,     1472,     5888, 0x390baf95
1,      92661,      92661,     1472,     5888, 0xb72c72ea
1,      94133,      94133,     1472,     5888, 0xbbd3c6fe
1,      95605,      95605,     1472,     5888, 0xefb26f0a
1,      97077,      97077,     1472,     5888, 0xcc404dd0
1,      98549,      98549,     1472,     5888, 0xffa23082
1,     100021,     100021,     1472,     5888, 0xd0c43567
1,     101493,     101493,     1472,     5888, 0x4d3b7958
1,     102965,     102965,     1472,     5888, 0x47125aa1
1,     104437,     104437,     1472,     5888, 0x99286cf3
1,     105909,     105909,     1472,     5888, 0x478d61e2
1,     107381,     107381,     1472,     5888, 0xac65b47e
1,     108853,     108853,     1472,     5888, 0x333c1d1a
1,     110325,     110325,     1472,     5888, 0x8f960ecf
1,     111797,     111797,     1472,     5888, 0x58f76aec
1,     113269,     113269,     1472,     5888, 0xb5e0dded
1,     114741,     114741,     1472,     5888, 0xaf1a8f9a
